#!OML:ASF H:\Terrain\Patient Classification 1\Animal2\Wednesday\Animal2.ASF
:FULLY-SPECIFIED
:DEGREES
1451
root 15.6139 15.7288 -9.73033 13.2487 -51.7586 -11.9387
lowerback 8.89318 -1.04442 -1.58949
upperback -5.18339 -2.50089 -7.30747
thorax -10.9269 -1.49727 -6.61457
lowerneck -1.74806 -0.899617 11.6454
upperneck -26.6304 -3.61652 -10.0805
head -8.26451 -2.21102 -5.20667
rclavicle -4.17448e-015 1.90833e-014
rhumerus 61.2345 -48.6117 -23.1782
rradius 32.2578
rwrist 2.72077
rhand -18.6101 10.5688
rfingers 7.12502
rthumb 7.68154 -19.2717
lclavicle -4.17448e-015 1.90833e-014
lhumerus -11.1358 -6.35155 58.7218
lradius 65.3478
lwrist 40.9127
lhand -24.7471 24.5212
lfingers 7.12502
lthumb 1.75585 54.4938
rfemur 1.93046 -7.91766 12.3
rtibia 37.4771
rfoot -34.4533 -19.6808
rtoes -21.6941
lfemur -40.2113 -9.55779 11.7964
ltibia 52.12
lfoot -19.1789 -16.9302
ltoes -12.4202
1452
root 15.6602 15.686 -9.85379 15.2753 -49.3861 -11.4646
lowerback 8.197 -1.89105 -1.91364
upperback -5.77841 -3.68573 -7.13386
thorax -11.277 -2.05037 -6.03696
lowerneck -1.9019 -0.785462 11.605
upperneck -26.7874 -3.46996 -9.97431
head -8.27163 -2.15457 -5.17666
rclavicle 3.95581e-014 3.49861e-014
rhumerus 61.4266 -48.9598 -23.7164
rradius 32.2891
rwrist 3.18207
rhand -18.6614 10.5526
rfingers 7.12502
rthumb 7.63196 -19.2897
lclavicle 3.95581e-014 3.49861e-014
lhumerus -12.8948 -4.85957 59.3394
lradius 63.6109
lwrist 40.3864
lhand -21.5469 25.7118
lfingers 7.12502
lthumb 4.84626 55.6364
rfemur -0.784921 -9.43866 13.6451
rtibia 37.9767
rfoot -34.5488 -20.4645
rtoes -20.7198
lfemur -44.6517 -8.38898 12.7185
ltibia 52.4312
lfoot -17.6734 -18.6459
ltoes -13.3103
1453
root 15.6038 15.6962 -9.72149 13.9581 -51.3352 -12.5481
lowerback 9.043 -1.06511 -1.41108
upperback -5.0859 -2.49834 -7.27748
thorax -10.9125 -1.50417 -6.68163
lowerneck -1.64305 -0.843887 11.3908
upperneck -27.0784 -3.49511 -9.70093
head -8.4181 -2.16454 -5.04802
rclavicle -1.27222e-014 0
rhumerus 60.9256 -49.1032 -23.4201
rradius 32.3661
rwrist 3.12734
rhand -18.648 10.8999
rfingers 7.12502
rthumb 7.64493 -18.942
lclavicle -1.27222e-014 0
lhumerus -14.8644 -3.47809 60.0975
lradius 61.656
lwrist 39.9129
lhand -20.8105 24.4102
lfingers 7.12502
lthumb 5.55734 54.3173
rfemur 1.66431 -8.15253 12.8243
rtibia 37.7761
rfoot -34.6573 -19.664
rtoes -22.0753
lfemur -41.0716 -9.05338 12.2233
ltibia 53.0032
lfoot -19.1822 -17.5374
ltoes -14.2628
1454
root 15.5934 15.6833 -9.71299 13.9483 -51.1439 -12.699
lowerback 9.33185 -0.992287 -1.3262
upperback -5.03561 -2.41723 -7.41086
thorax -11.0338 -1.48032 -6.89723
lowerneck -1.65418 -0.960138 11.3668
upperneck -27.0832 -3.5978 -9.4481
head -8.43033 -2.22953 -4.94753
rclavicle 1.37161e-014 -1.59028e-014
rhumerus 59.907 -49.2214 -22.6297
rradius 32.4317
rwrist 2.68389
rhand -18.561 11.3278
rfingers 7.12502
rthumb 7.7289 -18.511
lclavicle 1.37161e-014 -1.59028e-014
lhumerus -16.8403 -2.17404 60.6155
lradius 59.6601
lwrist 39.4531
lhand -22.634 23.198
lfingers 7.12502
lthumb 3.79652 53.144
rfemur 1.8684 -8.52973 12.832
rtibia 37.8821
rfoot -34.7551 -19.5518
rtoes -22.6264
lfemur -41.1826 -9.12882 12.3351
ltibia 53.409
lfoot -19.4123 -17.4561
ltoes -14.2126
1455
root 15.5789 15.6712 -9.69707 14.2485 -51.0574 -13.03
lowerback 9.35155 -0.854194 -0.94928
upperback -5.03331 -2.20892 -7.65113
thorax -11.05 -1.42442 -7.42936
lowerneck -1.7026 -1.12252 11.5279
upperneck -26.9685 -3.76699 -9.28841
head -8.40665 -2.33388 -4.90527
rclavicle 9.74045e-015 6.36111e-014
rhumerus 58.6618 -49.3198 -21.8086
rradius 32.5378
rwrist 2.48397
rhand -18.4837 11.3815
rfingers 7.12502
rthumb 7.80348 -18.4545
lclavicle 9.74045e-015 6.36111e-014
lhumerus -18.682 -1.37435 60.7975
lradius 57.4261
lwrist 39.3211
lhand -23.2025 22.9816
lfingers 7.12502
lthumb 3.24752 52.9366
rfemur 2.06704 -8.84882 12.9246
rtibia 37.5773
rfoot -34.6179 -19.3538
rtoes -22.7155
lfemur -41.3827 -9.16188 12.59
ltibia 53.8533
lfoot -19.7069 -17.4044
ltoes -14.5709
1456
root 15.5708 15.6532 -9.68585 14.8411 -51.0026 -13.4304
lowerback 9.29091 -0.66958 -0.638056
upperback -5.18798 -1.93882 -7.75853
thorax -11.172 -1.3313 -7.79256
lowerneck -1.68361 -1.3234 11.5349
upperneck -26.8404 -4.02139 -9.2581
head -8.39709 -2.45039 -4.87524
rclavicle 8.3092e-014 -9.22361e-014
rhumerus 57.4862 -49.34 -20.9081
rradius 32.6805
rwrist 2.33181
rhand -18.3431 11.3393
rfingers 7.12502
rthumb 7.93918 -18.4916
lclavicle 8.3092e-014 -9.22361e-014
lhumerus -20.4229 -0.826537 61.1353
lradius 54.7117
lwrist 39.3704
lhand -22.2482 24.7388
lfingers 7.12502
lthumb 4.16907 54.6778
rfemur 1.68055 -9.08903 13.1526
rtibia 37.811
rfoot -34.5844 -19.555
rtoes -23.3051
lfemur -41.8178 -8.91394 12.9273
ltibia 54.1965
lfoot -19.7567 -17.3981
ltoes -14.682
1457
root 15.5678 15.6283 -9.67721 15.3544 -51.0379 -13.783
lowerback 9.31106 -0.52261 -0.547215
upperback -5.27101 -1.73042 -7.7296
thorax -11.2509 -1.23935 -7.8576
lowerneck -1.69213 -1.44961 11.3025
upperneck -26.9064 -4.20132 -9.17332
head -8.43394 -2.52006 -4.7939
rclavicle -5.46658e-014 5.725e-014
rhumerus 57.3565 -49.546 -20.9024
rradius 32.6226
rwrist 2.53385
rhand -18.4166 11.2058
rfingers 7.12502
rthumb 7.8683 -18.6278
lclavicle -5.46658e-014 5.725e-014
lhumerus -22.0498 0.744792 61.4713
lradius 51.7033
lwrist 39.0768
lhand -26.6953 22.3527
lfingers 7.12502
lthumb -0.125803 52.3324
rfemur 1.24466 -9.16752 13.3801
rtibia 38.0844
rfoot -34.2138 -20.3827
rtoes -25.0902
lfemur -42.2152 -8.50331 13.1874
ltibia 54.5642
lfoot -19.7173 -17.529
ltoes -15.2049
